<svg width="32" height="32" viewBox="0 0 32 32" fill="none" xmlns="http://www.w3.org/2000/svg">
<path d="M18.1622 26.1927C16.9132 27.265 15.0868 27.265 13.8378 26.1927C11.4125 24.1106 7.57245 20.6455 5.6875 18.0517C4.875 16.9336 4.30729 15.9061 3.98438 14.9691C3.66146 14.032 3.5 13.0737 3.5 12.0941C3.5 10.0922 4.15625 8.42046 5.46875 7.0788C8.39901 4.08343 13 4.61915 16 7.23852C19.375 4.49145 23.601 4.08343 26.5312 7.0788C27.8438 8.42046 28.5 10.0922 28.5 12.0941C28.5 13.0737 28.3385 14.032 28.0156 14.9691C27.6927 15.9061 27.125 16.9336 26.3125 18.0517C24.4275 20.6455 20.5875 24.1106 18.1622 26.1927Z" fill="#F34B61"/>
</svg>
