<svg viewBox="0 0 48 48" fill="none" xmlns="http://www.w3.org/2000/svg">
<path d="M27.4596 41.1044C25.4612 42.8201 22.5388 42.8201 20.5404 41.1044C16.66 37.773 10.5159 32.2289 7.5 28.0788C6.2 26.2899 5.29167 24.6459 4.775 23.1466C4.25833 21.6474 4 20.114 4 18.5466C4 15.3437 5.05 12.6688 7.15 10.5222C11.8384 5.7296 19.2 6.58675 24 10.7777C29.4 6.38243 36.1616 5.7296 40.85 10.5222C42.95 12.6688 44 15.3437 44 18.5466C44 20.114 43.7417 21.6474 43.225 23.1466C42.7083 24.6459 41.8 26.2899 40.5 28.0788C37.4841 32.2289 31.34 37.773 27.4596 41.1044Z" fill="white"/>
<mask id="mask0_228_102" style="mask-type:alpha" maskUnits="userSpaceOnUse" x="6" y="9" width="36" height="30">
<path d="M27.3772 37.6694C25.4104 39.3047 22.5894 39.3047 20.6226 37.6694C17.1984 34.8225 12.0492 30.309 9.4799 26.9031C8.3359 25.3866 7.53657 23.9928 7.0819 22.7219C6.62724 21.4509 6.3999 20.151 6.3999 18.8223C6.3999 16.107 7.3239 13.8395 9.1719 12.0197C13.2977 7.95679 19.7759 8.68344 23.9999 12.2363C28.7519 8.51023 34.7021 7.95679 38.8279 12.0197C40.6759 13.8395 41.5999 16.107 41.5999 18.8223C41.5999 20.151 41.3726 21.4509 40.9179 22.7219C40.4632 23.9928 39.6639 25.3866 38.5199 26.9031C35.9506 30.309 30.8014 34.8225 27.3772 37.6694Z" fill="#D9D9D9"/>
</mask>
<g mask="url(#mask0_228_102)">
<path d="M6.80005 24.4364H19.3052C19.3092 24.4364 19.313 24.4384 19.3152 24.4418L22.9276 29.9816C22.9328 29.9896 22.9447 29.9886 22.9486 29.98L28.1575 18.4222C28.1616 18.4131 28.1743 18.4127 28.179 18.4215L31.392 24.43C31.3941 24.4339 31.3982 24.4364 31.4026 24.4364H41.6" stroke="#E74D54" stroke-width="3.2" stroke-linecap="round"/>
</g>
</svg>
